<?xml version="1.0" encoding="UTF-8" standalone="no"?>
<svg
   xmlns:dc="http://purl.org/dc/elements/1.1/"
   xmlns:cc="http://creativecommons.org/ns#"
   xmlns:rdf="http://www.w3.org/1999/02/22-rdf-syntax-ns#"
   xmlns:svg="http://www.w3.org/2000/svg"
   xmlns="http://www.w3.org/2000/svg"
   xmlns:sodipodi="http://sodipodi.sourceforge.net/DTD/sodipodi-0.dtd"
   xmlns:inkscape="http://www.inkscape.org/namespaces/inkscape"
   id="svg2"
   sodipodi:docname="remix.ulusaldemokratparti.svg"
   viewBox="0 0 609.77 575.32"
   version="1.1"
   inkscape:version="1.0.2 (e86c870879, 2021-01-15)">
  <defs
     id="defs12" />
  <sodipodi:namedview
     id="base"
     fit-margin-left="20"
     inkscape:zoom="1.1211152"
     borderopacity="1.0"
     inkscape:current-layer="layer2"
     inkscape:cx="133.18098"
     inkscape:cy="287.66"
     inkscape:snap-bbox-midpoints="true"
     inkscape:object-paths="true"
     inkscape:window-maximized="1"
     inkscape:snap-bbox="true"
     showgrid="false"
     fit-margin-right="20"
     inkscape:snap-global="false"
     inkscape:document-units="px"
     bordercolor="#666666"
     inkscape:window-x="0"
     inkscape:window-y="0"
     fit-margin-bottom="20"
     inkscape:window-width="1554"
     inkscape:pageopacity="0.0"
     inkscape:pageshadow="2"
     pagecolor="#ffffff"
     inkscape:window-height="836"
     fit-margin-top="20"
     inkscape:document-rotation="0" />
  <g
     id="layer1"
     style="display:none"
     inkscape:label="Frame"
     transform="translate(-67.362 -238.53)"
     inkscape:groupmode="layer"
     sodipodi:insensitive="true">
    <circle
       id="path2985"
       sodipodi:rx="282.84271"
       sodipodi:cy="573.54987"
       style="stroke:#000000;fill:none"
       sodipodi:ry="282.84271"
       cx="482.85"
       transform="translate(-135.36 -121.22)"
       cy="573.55"
       r="282.84"
       sodipodi:cx="482.85291" />
    <circle
       id="path2987"
       sodipodi:rx="282.84271"
       sodipodi:cy="573.54987"
       style="stroke:#000000;fill:none"
       sodipodi:ry="282.84271"
       cx="482.85"
       transform="matrix(.58153 0 0 .58153 66.701 118.8)"
       cy="573.55"
       r="282.84"
       sodipodi:cx="482.85291" />
  </g>
  <g
     id="layer2"
     inkscape:label="L1"
     inkscape:groupmode="layer"
     transform="translate(-67.362 -238.53)">
    <path
       style="fill:#f4c430;fill-opacity:1;stroke-width:0.702715"
       d="m 545.23693,424.54157 c 6.90945,13.9206 14.15466,34.40132 16.84699,47.62302 1.28711,6.32086 1.4374,6.65899 4.31064,9.69782 3.64847,3.85876 9.63077,15.14607 12.44422,23.47955 3.74806,11.1018 4.38713,23.07515 1.66671,31.22657 -0.82115,2.46046 -1.63846,4.57472 -1.81626,4.69838 -0.44464,0.30926 -2.36635,-3.75095 -6.4277,-13.58057 -2.66943,-6.46075 -3.66899,-8.32727 -4.44764,-8.3053 -0.59723,0.0168 -1.03114,0.65156 -1.07041,1.56576 -0.91915,21.40303 -2.75271,33.38444 -8.21696,53.69416 -4.96583,18.45721 -9.02954,28.40781 -16.2343,39.75206 -1.8831,2.96504 -3.11295,6.23764 -4.15297,11.05104 -2.75046,12.72945 -10.30742,28.67035 -19.75883,41.67996 -2.5012,3.44282 -4.64631,6.3283 -4.76692,6.41219 -0.12063,0.0839 0.0575,-3.09761 0.39573,-7.07 1.08349,-12.7236 -0.19469,-24.27849 -3.87482,-35.02891 -1.00133,-2.92509 -2.03872,-5.65499 -2.30532,-6.06642 -0.2666,-0.41144 -2.1343,-0.26208 -4.15045,0.33191 -14.42994,4.2513 -34.46668,2.88132 -50.70019,-3.46653 -5.27198,-2.06152 -13.62617,-6.29847 -14.21706,-7.21038 -0.0856,-0.13208 1.84795,-0.75734 4.29673,-1.38943 2.44879,-0.63212 9.34499,-3.12695 15.32491,-5.54406 20.66592,-8.35327 30.96029,-10.03569 48.1735,-7.87309 l 6.51597,0.81865 0.50105,-4.50941 c 2.3853,-21.46744 -1.12808,-45.20085 -10.10533,-68.26282 -1.78801,-4.59329 -6.145,-14.54992 -9.68218,-22.12584 -8.0919,-17.33114 -10.48043,-23.02309 -14.04259,-33.46382 -2.42358,-7.10358 -3.80172,-9.95219 -9.19965,-19.01552 -6.30125,-10.58005 -6.36191,-10.71937 -8.06146,-18.51486 -0.94184,-4.32004 -2.90124,-15.75031 -4.35423,-25.40064 -1.45299,-9.65031 -2.86198,-18.30418 -3.13108,-19.2308 -0.26883,-0.92671 -0.13252,-1.60311 0.30354,-1.50332 0.43605,0.0998 4.29056,2.59463 8.56557,5.54411 11.39263,7.86013 19.5237,11.9943 23.11552,11.75286 1.9675,-0.13225 1.88656,-1.5189 -0.15654,-2.68171 -5.14906,-2.93052 -17.3645,-15.94025 -27.02775,-28.78525 l -4.11378,-5.46829 -0.445,-9.41215 c -0.70754,-14.9655 0.30505,-18.87418 5.03491,-19.43503 3.65808,-0.43375 6.79231,0.86936 15.34769,6.38114 18.11709,11.67186 33.76733,25.77292 47.38812,42.69729 5.7444,7.13763 17.95696,26.33353 22.22762,34.93772 z"
       id="path536-3"
       inkscape:connector-curvature="0" />
    <path
       style="fill:#000000;fill-opacity:1;stroke-width:0.702715"
       d="m 187.20411,536.77515 c -2.53463,-0.63545 -4.83273,-5.75691 -4.83273,-10.77002 0,-5.32542 1.79607,-20.1359 3.51369,-28.97405 5.18898,-26.70031 16.37169,-53.34261 31.79344,-75.74641 9.17033,-13.32208 24.75739,-30.4893 36.32093,-40.00297 2.75294,-2.26492 5.00533,-4.56374 5.00533,-5.10849 0,-1.76942 4.78532,-10.55861 8.56099,-15.72394 7.84001,-10.72559 17.27224,-18.71047 26.22681,-22.20239 5.05776,-1.97232 12.15878,-3.136 12.15878,-1.99251 0,0.39157 -3.29999,4.80621 -7.33332,9.81031 -4.04033,5.01276 -7.063,9.36316 -6.73132,9.68806 0.33111,0.32434 5.56178,-1.49136 11.62367,-4.0349 13.37175,-5.61069 21.4532,-8.01746 37.88017,-11.28124 20.9588,-4.16419 27.90588,-4.69807 41.88459,-3.21876 6.60342,0.69882 7.77181,0.63021 13.11743,-0.77036 11.74236,-3.07649 34.43762,-2.65345 49.66202,0.9257 l 3.75102,0.88184 -6.16738,2.39442 c -11.59498,4.50162 -20.96042,10.68621 -29.13764,19.24138 l -5.02007,5.25213 3.4495,4.10885 c 11.81639,14.07502 19.36289,36.66225 19.36289,57.95449 0,6.88717 -0.32917,7.01632 -4.72029,1.85203 -2.15029,-2.5289 -7.74966,-8.19085 -12.44304,-12.58212 -4.69342,-4.39127 -10.52923,-10.59362 -12.96849,-13.78301 -4.97654,-6.50693 -11.73587,-19.83894 -13.74703,-27.11446 -0.72849,-2.63533 -1.57312,-4.7915 -1.87696,-4.7915 -0.30384,0 -3.26328,1.08465 -6.57652,2.41032 -23.80816,9.52596 -41.88802,24.47716 -63.25769,52.31115 -16.13564,21.01667 -18.30278,23.69801 -25.72222,31.82531 -8.20838,8.9915 -10.63579,12.32748 -13.98798,19.22375 -3.92885,8.0826 -9.44213,13.17176 -31.45054,29.03104 -6.45515,4.65159 -13.07827,9.5771 -14.71803,10.94558 l -2.98137,2.48815 0.38876,-2.41257 c 2.41304,-14.97482 3.17432,-30.49634 1.7093,-34.85029 -0.94696,-2.81432 -2.69015,-2.99839 -2.70423,-0.28554 -0.0303,5.82747 -4.62615,19.61673 -11.56545,34.70015 l -4.52923,9.84479 -8.22901,4.72714 c -8.93087,5.13031 -13.02528,6.70173 -15.70878,6.02894 z"
       id="path534"
       inkscape:connector-curvature="0" />
    <path
       style="fill:#4c2447;fill-opacity:1;stroke-width:0.702715"
       d="m 370.85753,713.00817 c -15.00702,-1.81546 -35.45844,-6.99849 -47.55489,-12.05189 -5.78291,-2.41587 -6.13765,-2.47505 -10.1744,-1.69729 -5.12594,0.9876 -17.50587,-0.15767 -25.75241,-2.38238 -10.986,-2.96374 -20.93761,-9.08753 -25.95389,-15.97088 -1.51412,-2.07769 -2.75296,-3.95916 -2.75296,-4.18102 0,-0.55484 4.32495,0.0552 14.46602,2.04034 6.66546,1.3048 8.71842,1.48533 9.1348,0.8033 0.31939,-0.52311 0.0526,-1.25012 -0.65819,-1.79344 -16.64004,-12.71989 -25.21996,-20.97509 -38.45056,-36.99521 -12.02379,-14.55889 -17.73321,-23.60051 -22.8088,-36.12076 -1.32661,-3.27242 -3.26379,-6.15433 -6.54158,-9.73176 -8.66834,-9.46081 -17.23137,-24.84602 -22.38937,-40.22703 -1.365,-4.07037 -2.48181,-7.52382 -2.48181,-7.67432 0,-0.15052 2.45039,1.77592 5.44532,4.28096 9.59276,8.02367 19.56524,13.36448 30.23178,16.19081 2.90226,0.76901 5.66819,1.39821 6.14651,1.39821 0.47832,0 1.39961,-1.68981 2.04732,-3.75513 4.63573,-14.78185 16.90138,-31.25348 31.03649,-41.67914 4.59052,-3.38584 12.64232,-8.21042 13.70246,-8.21042 0.15355,0 -0.42304,2.01167 -1.28133,4.47038 -0.85828,2.45872 -2.70262,9.78122 -4.09855,16.27223 -4.82413,22.4322 -9.21354,32.22492 -20.54066,45.82602 l -4.28782,5.14861 3.33454,2.94437 c 15.87449,14.01697 36.85263,24.22295 60.33805,29.35482 4.67762,1.02212 15.08527,2.82379 23.12809,4.00371 18.39925,2.69928 24.29206,3.81719 34.64466,6.57238 7.0436,1.87456 10.09461,2.27682 20.36653,2.68521 11.99093,0.47672 12.1364,0.50221 19.33095,3.38521 3.98702,1.59768 14.23932,6.28305 22.7829,10.41195 8.54359,4.1289 16.26409,7.74027 17.15667,8.02526 0.8926,0.28498 1.35861,0.77953 1.03559,1.09899 -0.323,0.31947 -4.47073,2.2445 -9.21717,4.27786 -12.64894,5.41875 -20.49401,10.10869 -22.30248,13.33287 -0.99062,1.76611 0.16575,2.46936 2.23637,1.36004 5.21843,-2.79577 22.45283,-6.05207 38.13272,-7.20488 l 6.67516,-0.49076 7.79089,4.86322 c 12.38768,7.73261 14.95572,10.78217 12.76893,15.16329 -1.69128,3.38837 -4.48249,5.35806 -13.66807,9.64516 -19.45162,9.07847 -39.47505,14.68107 -60.62994,16.96437 -8.92178,0.96296 -31.11219,0.76886 -40.38787,-0.35326 z"
       id="path536"
       inkscape:connector-curvature="0" />
  </g>
  <metadata
     id="metadata13">
    <rdf:RDF>
      <cc:Work>
        <dc:format>image/svg+xml</dc:format>
        <dc:type
           rdf:resource="http://purl.org/dc/dcmitype/StillImage" />
        <cc:license
           rdf:resource="http://creativecommons.org/licenses/publicdomain/" />
        <dc:publisher>
          <cc:Agent
             rdf:about="http://openclipart.org/">
            <dc:title>Openclipart</dc:title>
          </cc:Agent>
        </dc:publisher>
        <dc:title></dc:title>
      </cc:Work>
      <cc:License
         rdf:about="http://creativecommons.org/licenses/publicdomain/">
        <cc:permits
           rdf:resource="http://creativecommons.org/ns#Reproduction" />
        <cc:permits
           rdf:resource="http://creativecommons.org/ns#Distribution" />
        <cc:permits
           rdf:resource="http://creativecommons.org/ns#DerivativeWorks" />
      </cc:License>
    </rdf:RDF>
  </metadata>
</svg>
