<?xml version="1.0" encoding="UTF-8" standalone="no"?>
<!-- Created with Inkscape (http://www.inkscape.org/) -->
<svg xmlns:dc="http://purl.org/dc/elements/1.1/" xmlns:cc="http://creativecommons.org/ns#" xmlns:rdf="http://www.w3.org/1999/02/22-rdf-syntax-ns#" xmlns:svg="http://www.w3.org/2000/svg" xmlns="http://www.w3.org/2000/svg" xmlns:sodipodi="http://sodipodi.sourceforge.net/DTD/sodipodi-0.dtd" xmlns:inkscape="http://www.inkscape.org/namespaces/inkscape" id="svg2" sodipodi:docname="shark.svg" viewBox="0 0 609.77 575.32" version="1.1" inkscape:version="0.92.5 (2060ec1f9f, 2020-04-08)">
  <defs id="defs12"/>
  <sodipodi:namedview id="base" fit-margin-left="20" inkscape:zoom="0.9899495" borderopacity="1.0" inkscape:current-layer="layer2" inkscape:cx="215.5044" inkscape:cy="306.13258" inkscape:snap-bbox-midpoints="true" inkscape:object-paths="true" inkscape:window-maximized="1" inkscape:snap-bbox="true" showgrid="false" fit-margin-right="20" inkscape:snap-global="false" inkscape:document-units="px" bordercolor="#666666" inkscape:window-x="72" inkscape:window-y="27" fit-margin-bottom="20" inkscape:window-width="1528" inkscape:pageopacity="0.0" inkscape:pageshadow="2" pagecolor="#ffffff" inkscape:window-height="836" fit-margin-top="20"/>
  <g id="layer1" style="display:none" inkscape:label="Frame" transform="translate(-67.362 -238.53)" inkscape:groupmode="layer" sodipodi:insensitive="true">
    <circle id="path2985" sodipodi:rx="282.84271" sodipodi:cy="573.54987" style="stroke:#000000;fill:none" sodipodi:ry="282.84271" cx="482.85" transform="translate(-135.36 -121.22)" cy="573.55" r="282.84" sodipodi:cx="482.85291"/>
    <circle id="path2987" sodipodi:rx="282.84271" sodipodi:cy="573.54987" style="stroke:#000000;fill:none" sodipodi:ry="282.84271" cx="482.85" transform="matrix(.58153 0 0 .58153 66.701 118.8)" cy="573.55" r="282.84" sodipodi:cx="482.85291"/>
  </g>
  <g id="layer2" inkscape:label="L1" inkscape:groupmode="layer" transform="translate(-67.362 -238.53)">
    <path id="path2989" style="stroke:#000000;stroke-width:2;fill:#87cefa" d="m133.51 512.7c-26.624 13.913-39.754 26.736-44.972 2.2454 2.9716-63.133 24.656-117.41 60.334-163.1 15.566-18.81 31.547-36.006 51.794-50.775 0.0511-6.7474 29.18-61.36 73.346-59.704 2.9078 0.10903-22.953 29.259-22.953 29.259 27.393-11.643 40.842-17.292 71.442-22.515 22.628-4.6188 41.257-8.3065 71.564-3.2502 43.536-14.134 94.235 1.8357 94.235 1.8357-42.663 9.2802-63.533 38.183-63.533 38.183s38.396 34.796 31.641 101.23c-21.211-31.254-50.82-34.765-67.762-92.146-72.232 23.115-102.43 83.582-130.31 113.12-13.513 15.183-18.091 15.845-28.879 36.105-4.6074 17.307-52.188 42.452-73.949 61.516 0.69761-14.655 8.0138-44.495 2.132-58.162-0.30925 17.543-16.106 50.633-24.132 66.162z" sodipodi:nodetypes="ccccssccccccccccc" inkscape:transform-center-y="-145.36237" inkscape:connector-curvature="0" inkscape:transform-center-x="82.71921"/>
    <path id="use2995" sodipodi:nodetypes="ccccssccccccccccc" d="m475.64 743.3c25.363 16.097 43.034 21.054 24.436 37.821-56.157 29.001-114 37.368-171.41 29.322-24.073-4.0723-46.956-9.3113-69.872-19.457-5.8685 3.3302-67.729 5.4185-88.383-33.655-1.3598-2.5726 36.817 5.2434 36.817 5.2434-23.79-17.89-35.41-26.71-55.23-50.6-15.32-17.29-27.83-31.57-38.61-60.35-34.012-30.63-45.538-82.52-45.538-82.52 29.373 32.303 64.839 35.92 64.839 35.92s10.929-50.652 71.834-78.026c-16.457 33.998-4.6889 61.395-45.906 104.76 56.141 50.99 123.6 46.897 163.12 56.268 19.906 4.1084 22.768 7.7413 45.709 6.9514 17.291-4.6656 62.862 23.961 90.253 33.272-13.039 6.725-42.538 15.313-51.432 27.242 15.346-8.5055 51.901-11.376 69.363-12.192z" inkscape:transform-center-x="82.71921" inkscape:transform-center-y="-145.36237" inkscape:connector-curvature="0" style="stroke:#000000;stroke-width:2;fill:#87cefa"/>
    <path id="use2997" sodipodi:nodetypes="ccccssccccccccccc" d="m509.07 335.05c1.997-29.974-2.1065-47.861 21.516-39.555 52.338 35.431 87.367 82.221 107.77 136.48 7.9442 23.087 14.295 45.687 16.352 70.663 5.7325 3.5593 37.169 56.877 12.743 93.711-1.6081 2.4251-13.014-34.837-13.014-34.837-4.3353 29.448-6.5212 43.869-18.007 72.71-7.8478 21.72-14.407 39.542-34.513 62.775-10.62 44.524-50.667 79.476-50.667 79.476 14.308-41.249 0.51239-74.122 0.51239-74.122s-49.705 14.642-102.89-25.737c37.728-1.8191 56.153-25.263 113.96-9.825 17.907-73.696-17.971-130.97-28.654-170.16-5.9186-19.445-4.0983-23.697-15.77-43.462-12.371-12.95-9.0425-66.663-13.975-95.17 12.145 8.2311 33.802 30.024 48.533 32.125-14.812-9.4043-34.825-40.129-43.898-55.071z" inkscape:transform-center-x="82.71921" inkscape:transform-center-y="-145.36237" inkscape:connector-curvature="0" style="stroke:#000000;stroke-width:2;fill:#87cefa"/>
    <path style="fill:#008000;stroke-width:1.01015258" d="m 30.040391,288.24466 c -3.708573,-0.89744 -7.071068,-8.13039 -7.071068,-15.21032 0,-7.52098 2.62794,-28.43755 5.141093,-40.91951 C 35.70273,194.40644 52.064832,156.78 74.629325,125.13953 88.046972,106.32498 110.85334,82.080042 127.77265,68.644058 c 4.02798,-3.198708 7.3236,-6.445295 7.3236,-7.214636 0,-2.498921 7.00169,-14.911728 12.52611,-22.206638 11.47119,-15.147563 25.27204,-26.424466 38.37402,-31.3560369 7.40031,-2.7854691 17.79025,-4.428912 17.79025,-2.8139974 0,0.5530138 -4.82843,6.7877333 -10.72984,13.8549323 -5.91164,7.079443 -10.3343,13.223432 -9.84899,13.682281 0.48447,0.458057 8.13775,-2.106232 17.00728,-5.698418 19.56501,-7.923877 31.38946,-11.322915 55.42476,-15.932302 30.66607,-5.8810095 40.83077,-6.6349854 61.28387,-4.5457859 9.66186,0.9869189 11.37139,0.8900128 19.1929,-1.0879628 17.18095,-4.34487916 50.38772,-3.7474337 72.66347,1.3073377 l 5.48834,1.245402 -9.02387,3.381596 c -16.96531,6.357564 -30.66844,15.091941 -42.63301,27.174276 l -7.34519,7.41748 5.04718,5.802856 c 17.28926,19.877891 28.33101,51.777428 28.33101,81.848078 0,9.72663 -0.48163,9.90903 -6.90654,2.61559 -3.1462,-3.57151 -11.33898,-11.56778 -18.20617,-17.7695 -6.8672,-6.20171 -15.40593,-14.96119 -18.97496,-19.465492 -7.28148,-9.189623 -17.17146,-28.018174 -20.11412,-38.293277 -1.06588,-3.721816 -2.30171,-6.766938 -2.74628,-6.766938 -0.44457,0 -4.7747,1.531821 -9.62251,3.404047 -34.83514,13.453344 -61.28888,34.568656 -92.55612,73.8781 -23.60902,29.68147 -26.7799,33.46827 -37.63573,44.94631 -12.01017,12.69853 -15.56186,17.40989 -20.46664,27.14936 -5.74854,11.41492 -13.81537,18.60224 -46.01719,41.00001 -9.44493,6.56936 -19.135595,13.52557 -21.534821,15.45826 l -4.362228,3.51396 0.568818,-3.40723 c 3.530652,-21.14867 4.644532,-43.06944 2.500981,-49.21844 -1.385559,-3.97461 -3.93613,-4.23457 -3.956723,-0.40327 -0.04424,8.23004 -6.768801,27.70437 -16.922121,49.00641 l -6.626962,13.90362 -12.040387,6.67605 c -13.067291,7.24545 -19.058059,9.46473 -22.984446,8.51457 z" id="path534" inkscape:connector-curvature="0" transform="translate(67.362,238.53)"/>
    <path style="fill:#ff0000;stroke-width:1.01015258" d="m 269.95162,571.50764 c -21.95766,-2.56394 -51.88137,-9.88384 -69.58041,-17.02067 -8.46132,-3.41188 -8.98038,-3.49546 -14.88679,-2.39704 -7.50005,1.39477 -25.61387,-0.22268 -37.6799,-3.3646 -16.07426,-4.18563 -30.63506,-12.83415 -37.97468,-22.55539 -2.2154,-2.93429 -4.02801,-5.59144 -4.02801,-5.90477 0,-0.78359 6.32807,0.0779 21.1661,2.88153 9.75263,1.84274 12.75643,2.0977 13.36568,1.13449 0.4673,-0.73878 0.0769,-1.76553 -0.96306,-2.53284 C 115.02352,503.78426 102.46971,492.1256 83.11124,469.50067 65.518502,448.93941 57.164709,436.17009 49.738301,418.48797 47.797262,413.86639 44.962854,409.79632 40.166946,404.74398 27.483764,391.38265 14.95468,369.65439 7.4076991,347.93207 5.4104981,342.18356 3.7764246,337.30632 3.7764246,337.09376 c 0,-0.21257 3.5853148,2.5081 7.9673664,6.04592 14.035747,11.33169 28.627074,18.87443 44.233919,22.86599 4.246488,1.08607 8.293494,1.97467 8.993347,1.97467 0.699853,0 2.047847,-2.38648 2.995544,-5.3033 6.782825,-20.87615 24.729429,-44.13873 45.411369,-58.86271 6.71666,-4.78175 18.49773,-11.59543 20.04888,-11.59543 0.22467,0 -0.61897,2.84106 -1.87479,6.31345 -1.2558,3.4724 -3.95437,13.81384 -5.99682,22.98098 -7.05849,31.6806 -13.48089,45.51068 -30.054289,64.71926 l -6.273767,7.2713 4.87899,4.15828 c 23.226906,19.79591 53.921276,34.20964 88.284196,41.45728 6.84412,1.44351 22.07217,3.98799 33.84011,5.65437 26.92105,3.81213 35.54317,5.39095 50.69068,9.28205 10.30592,2.64741 14.77003,3.21551 29.7995,3.79227 17.54465,0.67327 17.75748,0.70926 28.28427,4.78087 5.83363,2.25637 20.8344,8.87344 33.33504,14.70462 12.50063,5.83117 23.79697,10.93144 25.10295,11.33393 1.306,0.40247 1.98785,1.10091 1.51523,1.55209 -0.47261,0.45117 -6.5414,3.16986 -13.4862,6.04153 -18.50742,7.6528 -29.98602,14.27633 -32.63209,18.82978 -1.44945,2.49425 0.24252,3.48744 3.27215,1.92076 7.6354,-3.94841 32.85209,-8.54723 55.79429,-10.17532 l 9.76682,-0.69309 11.39932,6.86823 c 18.12516,10.92063 21.8826,15.22748 18.68298,21.41485 -2.4746,4.78534 -6.55859,7.56708 -19.99857,13.62168 -28.46082,12.82137 -57.75831,20.73381 -88.71131,23.95848 -13.05399,1.35996 -45.52211,1.08584 -59.09392,-0.49891 z" id="path536" inkscape:connector-curvature="0" transform="translate(67.362,238.53)"/>
  </g>
  <metadata id="metadata13">
    <rdf:RDF>
      <cc:Work>
        <dc:format>image/svg+xml</dc:format>
        <dc:type rdf:resource="http://purl.org/dc/dcmitype/StillImage"/>
        <cc:license rdf:resource="http://creativecommons.org/licenses/publicdomain/"/>
        <dc:publisher>
          <cc:Agent rdf:about="http://openclipart.org/">
            <dc:title>Openclipart</dc:title>
          </cc:Agent>
        </dc:publisher>
        <dc:title/>
      </cc:Work>
      <cc:License rdf:about="http://creativecommons.org/licenses/publicdomain/">
        <cc:permits rdf:resource="http://creativecommons.org/ns#Reproduction"/>
        <cc:permits rdf:resource="http://creativecommons.org/ns#Distribution"/>
        <cc:permits rdf:resource="http://creativecommons.org/ns#DerivativeWorks"/>
      </cc:License>
    </rdf:RDF>
  </metadata>
</svg>